%TF.GenerationSoftware,Altium Limited,Altium Designer,24.5.1 (21)*%
G04 Layer_Color=16711935*
%FSLAX45Y45*%
%MOMM*%
%TF.SameCoordinates,8E29BE87-1CC9-43BB-A625-A17C5A0C5C18*%
%TF.FilePolarity,Negative*%
%TF.FileFunction,Soldermask,Bot*%
%TF.Part,Single*%
G01*
G75*
%TA.AperFunction,ComponentPad*%
%ADD19C,1.35000*%
%ADD22C,1.20000*%
%ADD28R,1.20000X1.20000*%
%ADD29R,1.35000X1.35000*%
%ADD32R,1.60000X1.60000*%
%ADD33C,1.60000*%
%ADD35R,1.20000X1.20000*%
%ADD38R,2.85420X2.85420*%
%ADD39C,2.85420*%
%ADD51C,2.05000*%
%ADD52C,2.39000*%
%ADD53R,2.05000X2.05000*%
%ADD58R,1.60000X1.60000*%
%ADD78C,5.07600*%
%ADD79C,1.57600*%
%ADD80R,1.57600X1.57600*%
%ADD81R,1.65100X1.65100*%
%ADD82C,1.65100*%
%ADD83C,1.42600*%
%ADD84R,1.42600X1.42600*%
%ADD85C,1.62560*%
%ADD86C,1.27600*%
%ADD87C,1.20600*%
%ADD88R,1.20600X1.20600*%
%ADD89C,4.53600*%
%ADD90C,1.87600*%
%ADD91R,1.20600X1.20600*%
%ADD92R,1.42600X1.42600*%
%ADD93R,1.27600X1.27600*%
%ADD94C,1.32600*%
%ADD95R,1.32600X1.32600*%
%ADD96C,1.37600*%
%ADD97C,1.12600*%
%ADD98R,1.12600X1.12600*%
%ADD99C,1.23500*%
%ADD100R,1.23500X1.23500*%
%ADD101C,1.60000*%
%ADD102C,3.87600*%
%ADD103R,1.27600X1.27600*%
%ADD104R,2.01100X2.01100*%
%ADD105C,2.01100*%
%ADD106C,1.35100*%
%ADD107R,1.35100X1.35100*%
%ADD108R,1.57600X3.57600*%
%ADD109R,3.57600X1.57600*%
%ADD110R,4.07600X1.57600*%
%ADD111R,1.65100X1.65100*%
%ADD112R,1.47600X1.47600*%
%ADD113C,1.47600*%
%ADD114R,1.23600X1.23600*%
%ADD115C,1.23600*%
%ADD116C,1.45700*%
%ADD117R,1.32600X1.32600*%
%ADD118R,1.37600X1.37600*%
%ADD119R,1.57600X1.57600*%
%ADD120R,2.62600X2.62600*%
%ADD121C,2.37600*%
%ADD122C,0.67600*%
%TA.AperFunction,ViaPad*%
%ADD123C,0.57600*%
%ADD124C,0.77600*%
%ADD125C,1.34600*%
D19*
X5272999Y15981000D02*
D03*
X5526999D02*
D03*
Y15218999D02*
D03*
D22*
X17518700Y3625002D02*
D03*
X18000000Y8943701D02*
D03*
X18431302Y3875004D02*
D03*
X15999998Y2243699D02*
D03*
X16250002Y1843700D02*
D03*
D28*
X18281299Y3625002D02*
D03*
X17668703Y3875004D02*
D03*
D29*
X5272999Y15218999D02*
D03*
D32*
X19300002Y4531203D02*
D03*
X18950000Y5618800D02*
D03*
X16774998Y13168803D02*
D03*
X16450000Y12081200D02*
D03*
D33*
X19300002Y5618800D02*
D03*
X18950000Y4531203D02*
D03*
X16656203Y11749999D02*
D03*
X17743800Y11425001D02*
D03*
X16774998Y12081200D02*
D03*
X16450000Y13168803D02*
D03*
D35*
X18000000Y9706300D02*
D03*
X15999998Y3006298D02*
D03*
X16250002Y2606299D02*
D03*
D38*
X15499998Y15794899D02*
D03*
D39*
Y15324998D02*
D03*
Y14855099D02*
D03*
D51*
X4449999Y17725999D02*
D03*
X4949998D02*
D03*
X4700001Y16725002D02*
D03*
X5450500D02*
D03*
X4199499Y16475999D02*
D03*
X5200498D02*
D03*
D52*
X3949502Y17226001D02*
D03*
X5450500D02*
D03*
D53*
X3949502Y16725002D02*
D03*
D58*
X17743800Y11749999D02*
D03*
X16656203Y11425001D02*
D03*
D78*
X24500002Y499999D02*
D03*
Y17500002D02*
D03*
X499999Y499999D02*
D03*
Y17500002D02*
D03*
D79*
X7316998Y10075001D02*
D03*
X7570998D02*
D03*
X7824998D02*
D03*
X8078998D02*
D03*
X8332998D02*
D03*
X8586998D02*
D03*
X8840998D02*
D03*
X9094998D02*
D03*
X7316998Y10837001D02*
D03*
X7570998D02*
D03*
X7824998D02*
D03*
X8078998D02*
D03*
X8332998D02*
D03*
X8586998D02*
D03*
X8840998D02*
D03*
X4836003Y10094001D02*
D03*
X5090003D02*
D03*
X5344003D02*
D03*
X5598003D02*
D03*
X5852003D02*
D03*
X6106003D02*
D03*
X6360003D02*
D03*
X6614003D02*
D03*
X4836003Y10856001D02*
D03*
X5090003D02*
D03*
X5344003D02*
D03*
X5598003D02*
D03*
X5852003D02*
D03*
X6106003D02*
D03*
X6360003D02*
D03*
X3974998Y11125002D02*
D03*
Y10475001D02*
D03*
X4425000D02*
D03*
X3974998Y9924999D02*
D03*
Y9275003D02*
D03*
X4425000D02*
D03*
X3974998Y12324999D02*
D03*
Y11674998D02*
D03*
X4425000D02*
D03*
X3974998Y14725000D02*
D03*
Y14074998D02*
D03*
X4425000D02*
D03*
X3974998Y13525002D02*
D03*
Y12875002D02*
D03*
X4425000D02*
D03*
X20343999Y11510000D02*
D03*
Y11256000D02*
D03*
Y11002000D02*
D03*
Y10748000D02*
D03*
Y10494000D02*
D03*
Y10240000D02*
D03*
Y9986000D02*
D03*
X21105998Y11764000D02*
D03*
Y11510000D02*
D03*
Y11256000D02*
D03*
Y11002000D02*
D03*
Y10748000D02*
D03*
Y10494000D02*
D03*
Y10240000D02*
D03*
Y9986000D02*
D03*
X22488002Y9328998D02*
D03*
Y9074998D02*
D03*
Y8820998D02*
D03*
Y8566998D02*
D03*
Y8312998D02*
D03*
Y8058998D02*
D03*
Y7804998D02*
D03*
X23250002Y9582998D02*
D03*
Y9328998D02*
D03*
Y9074998D02*
D03*
Y8820998D02*
D03*
Y8566998D02*
D03*
Y8312998D02*
D03*
Y8058998D02*
D03*
Y7804998D02*
D03*
X20869000Y4060002D02*
D03*
Y3806002D02*
D03*
Y3552002D02*
D03*
Y3298002D02*
D03*
Y3044002D02*
D03*
Y2790002D02*
D03*
Y2536002D02*
D03*
X21631001Y4314002D02*
D03*
Y4060002D02*
D03*
Y3806002D02*
D03*
Y3552002D02*
D03*
Y3298002D02*
D03*
Y3044002D02*
D03*
Y2790002D02*
D03*
Y2536002D02*
D03*
X23144002Y5710001D02*
D03*
Y5456001D02*
D03*
Y5202001D02*
D03*
Y4948001D02*
D03*
Y4694001D02*
D03*
Y4440001D02*
D03*
Y4186001D02*
D03*
X23906001Y5964001D02*
D03*
Y5710001D02*
D03*
Y5456001D02*
D03*
Y5202001D02*
D03*
Y4948001D02*
D03*
Y4694001D02*
D03*
Y4440001D02*
D03*
Y4186001D02*
D03*
D80*
X9094998Y10837001D02*
D03*
X6614003Y10856001D02*
D03*
X4425000Y11125002D02*
D03*
Y9924999D02*
D03*
Y12324999D02*
D03*
Y14725000D02*
D03*
Y13525002D02*
D03*
D81*
X1099998Y8899997D02*
D03*
Y7189998D02*
D03*
X4900000Y14789998D02*
D03*
D82*
X1099998Y10309997D02*
D03*
Y8599998D02*
D03*
X1199998Y15699998D02*
D03*
X590001Y15100000D02*
D03*
X4900000Y16199998D02*
D03*
D83*
X18750002Y12149999D02*
D03*
Y11849999D02*
D03*
X17549998Y2025000D02*
D03*
X17500002Y4125001D02*
D03*
X18250002Y8425002D02*
D03*
X17950002Y7524999D02*
D03*
X19400002Y8699998D02*
D03*
Y9000002D02*
D03*
X20300000Y9300002D02*
D03*
X19400002Y9600001D02*
D03*
X19609999Y6520002D02*
D03*
X18250002Y5875000D02*
D03*
X19349998D02*
D03*
X17700000Y8075000D02*
D03*
X18674998Y9625000D02*
D03*
X18375000Y9650004D02*
D03*
X18150002Y14200002D02*
D03*
X4425000Y3750000D02*
D03*
X6774998Y3800003D02*
D03*
X5999998Y5300000D02*
D03*
X6274999Y6199998D02*
D03*
X5000000Y5599999D02*
D03*
X4125001Y5375001D02*
D03*
X9050000Y5799999D02*
D03*
X8150001Y6100003D02*
D03*
X7449998Y4500001D02*
D03*
X6774998Y5375001D02*
D03*
X5124999Y4025001D02*
D03*
X6125002Y4074998D02*
D03*
X8350001Y4225000D02*
D03*
X3974998Y4900000D02*
D03*
X5599999Y3375000D02*
D03*
X4475002Y5150002D02*
D03*
X7200001Y2420000D02*
D03*
X5550002Y919998D02*
D03*
X11450000Y2420000D02*
D03*
X10550002Y2695001D02*
D03*
X9349999Y2740000D02*
D03*
X8450001Y2429998D02*
D03*
X8099999Y2720000D02*
D03*
X4849998Y3285002D02*
D03*
X3550001D02*
D03*
X4549999Y2384999D02*
D03*
X4249999Y3285002D02*
D03*
X5000000Y1669999D02*
D03*
X8700003Y1119998D02*
D03*
X10375001Y845002D02*
D03*
X11274999Y1145002D02*
D03*
X3550001Y284998D02*
D03*
X4400001Y1185001D02*
D03*
X5999998Y1170000D02*
D03*
X7000001Y270002D02*
D03*
X14000002Y15799998D02*
D03*
X2449998Y17549998D02*
D03*
X4200002Y15250003D02*
D03*
X5999998Y17149998D02*
D03*
X15200000Y14400002D02*
D03*
X16474998Y8550001D02*
D03*
Y8275000D02*
D03*
Y7999999D02*
D03*
X14600002Y14900002D02*
D03*
X15575002Y7724999D02*
D03*
X14300002Y14908540D02*
D03*
X17624998Y15850002D02*
D03*
X16474998Y7450003D02*
D03*
X15575002Y7175002D02*
D03*
X16499997Y8825001D02*
D03*
X16099998Y14825000D02*
D03*
X15200000Y12924998D02*
D03*
X18075002Y14749998D02*
D03*
X18375000Y15675000D02*
D03*
X15200000Y12624999D02*
D03*
Y12324999D02*
D03*
X15850002Y13175000D02*
D03*
X16350000Y10275001D02*
D03*
X16150002Y14074998D02*
D03*
X15200000Y12025000D02*
D03*
X17449998Y13299998D02*
D03*
X17700000Y11174999D02*
D03*
X15200000Y11725001D02*
D03*
X17875002Y13499998D02*
D03*
X15200000Y11425001D02*
D03*
X19400002Y8425002D02*
D03*
X13470001Y10570002D02*
D03*
X1445001Y3625002D02*
D03*
X1620002D02*
D03*
X17950002Y6474998D02*
D03*
X1669999Y4875002D02*
D03*
X1894997Y4600001D02*
D03*
X14580000Y10250002D02*
D03*
X17950002Y6174999D02*
D03*
Y5899998D02*
D03*
X15300000Y2475001D02*
D03*
X17649998Y4425000D02*
D03*
X16750000Y4824999D02*
D03*
X15300000Y3574999D02*
D03*
X17249998Y4525000D02*
D03*
X15300000Y8075000D02*
D03*
X17149998Y1225001D02*
D03*
X15150003Y5450002D02*
D03*
X17149998Y1574998D02*
D03*
Y925002D02*
D03*
Y625003D02*
D03*
X15049998Y2824998D02*
D03*
X15424998Y425003D02*
D03*
X21399998Y11874998D02*
D03*
X21725002Y12500000D02*
D03*
X21525002Y9725000D02*
D03*
X23850002Y10999998D02*
D03*
X20630002Y13099998D02*
D03*
X24150000Y11400003D02*
D03*
X24449998D02*
D03*
X23424998Y10100000D02*
D03*
X24074998Y8774999D02*
D03*
X20350002Y12200001D02*
D03*
Y15799998D02*
D03*
X20899998Y12200001D02*
D03*
X21250002Y7850002D02*
D03*
X23499998Y9675002D02*
D03*
X21250002Y8399998D02*
D03*
X20324998Y6525001D02*
D03*
X23774998Y9675002D02*
D03*
X20899998Y14900002D02*
D03*
X22149998Y7275002D02*
D03*
X20624998Y14900002D02*
D03*
X21250002Y8124998D02*
D03*
X20624998Y7424999D02*
D03*
X22624998Y15550002D02*
D03*
X20200000Y5399999D02*
D03*
X21499998Y14900002D02*
D03*
X18774998Y13674998D02*
D03*
X22850003Y14900002D02*
D03*
X22249998Y6674998D02*
D03*
X22000002Y5524998D02*
D03*
X18774998Y13375000D02*
D03*
X20599998Y4525000D02*
D03*
X22524998Y6674998D02*
D03*
X22274997Y5524998D02*
D03*
X20599998Y4274998D02*
D03*
X18774998Y13075002D02*
D03*
X20850002Y4649998D02*
D03*
X20599998Y3950000D02*
D03*
X18774998Y12800000D02*
D03*
X22850003Y12125000D02*
D03*
X20275002Y3299998D02*
D03*
X22375002Y13250002D02*
D03*
X21199998Y15799998D02*
D03*
X21474998Y12975002D02*
D03*
X21949998Y12500000D02*
D03*
X23499998Y12975002D02*
D03*
X22824998Y6050001D02*
D03*
Y5875000D02*
D03*
X20899998Y1299997D02*
D03*
X18650002Y2650002D02*
D03*
X23525002Y3900002D02*
D03*
X18650002Y2000001D02*
D03*
Y1649999D02*
D03*
X21350000Y350002D02*
D03*
X18650002Y950001D02*
D03*
X22700000Y450002D02*
D03*
Y750001D02*
D03*
X23250002Y1399997D02*
D03*
D84*
X19649998Y12149999D02*
D03*
Y11849999D02*
D03*
X18399998Y4125001D02*
D03*
X20300000Y8699998D02*
D03*
Y9000002D02*
D03*
X19400002Y9300002D02*
D03*
X20300000Y9600001D02*
D03*
X18450002Y5875000D02*
D03*
X16800002Y8075000D02*
D03*
X5324998Y3750000D02*
D03*
X5875000Y3800003D02*
D03*
X5024999Y5375001D02*
D03*
X8150001Y5799999D02*
D03*
X9050000Y6100003D02*
D03*
X8350001Y4500001D02*
D03*
X4225000Y4025001D02*
D03*
X7025000Y4074998D02*
D03*
X7449998Y4225000D02*
D03*
X6500002Y3375000D02*
D03*
X8099999Y2420000D02*
D03*
X10550002D02*
D03*
X11450000Y2695001D02*
D03*
X8450001Y2740000D02*
D03*
X9349999Y2429998D02*
D03*
X7200001Y2720000D02*
D03*
X9600001Y1119998D02*
D03*
X11274999Y845002D02*
D03*
X10375001Y1145002D02*
D03*
X15575002Y8550001D02*
D03*
Y8275000D02*
D03*
Y7999999D02*
D03*
X16474998Y7724999D02*
D03*
X16725002Y15850002D02*
D03*
X15575002Y7450003D02*
D03*
X16474998Y7175002D02*
D03*
X17400002Y8825001D02*
D03*
X16100003Y12924998D02*
D03*
Y12624999D02*
D03*
Y12324999D02*
D03*
Y12025000D02*
D03*
Y11725001D02*
D03*
Y11425001D02*
D03*
X18499998Y8425002D02*
D03*
X14370000Y10570002D02*
D03*
X544998Y3625002D02*
D03*
X2520000D02*
D03*
X17049998Y6474998D02*
D03*
X2569997Y4875002D02*
D03*
X2795001Y4600001D02*
D03*
X13679997Y10250002D02*
D03*
X17049998Y6174999D02*
D03*
Y5899998D02*
D03*
X18550002Y4425000D02*
D03*
X17650003Y4824999D02*
D03*
X16350000Y4525000D02*
D03*
X14400002Y8075000D02*
D03*
X16250002Y1225001D02*
D03*
X14249998Y5450002D02*
D03*
X16250002Y1574998D02*
D03*
Y925002D02*
D03*
Y625003D02*
D03*
X14150000Y2824998D02*
D03*
X14525000Y425003D02*
D03*
X20624998Y9725000D02*
D03*
X24325002Y10100000D02*
D03*
X20349997Y7850002D02*
D03*
Y8399998D02*
D03*
X21250002Y7275002D02*
D03*
X20349997Y8124998D02*
D03*
X21725002Y15550002D02*
D03*
X19675003Y13674998D02*
D03*
Y13375000D02*
D03*
X19700002Y4274998D02*
D03*
X19675003Y13075002D02*
D03*
X21750000Y4649998D02*
D03*
X19700002Y3950000D02*
D03*
X19675003Y12800000D02*
D03*
X21949998Y12125000D02*
D03*
X19374998Y3299998D02*
D03*
X21474998Y13250002D02*
D03*
X22375002Y12975002D02*
D03*
X22850003Y12500000D02*
D03*
X19549998Y2650002D02*
D03*
X24425002Y3900002D02*
D03*
X19549998Y2000001D02*
D03*
Y1649999D02*
D03*
Y950001D02*
D03*
X21800002Y450002D02*
D03*
Y750001D02*
D03*
D85*
X11265002Y9434998D02*
D03*
X10985602Y9434982D02*
D03*
X10731602D02*
D03*
X10452202D02*
D03*
X10185502D02*
D03*
X6626850Y14743288D02*
D03*
X6906250Y14743303D02*
D03*
X7160250D02*
D03*
X7439650D02*
D03*
D86*
X22100002Y1199998D02*
D03*
X22600002D02*
D03*
X2300000Y10124999D02*
D03*
X2799999D02*
D03*
X22900000Y14000002D02*
D03*
Y14500002D02*
D03*
X21550000Y14474998D02*
D03*
Y13974998D02*
D03*
X18000000Y3325002D02*
D03*
X17500002D02*
D03*
X16250002D02*
D03*
X15750002D02*
D03*
X16399998Y6174999D02*
D03*
X20000002Y7025000D02*
D03*
X19500002D02*
D03*
X18299998D02*
D03*
X17800000D02*
D03*
X15999998Y10575000D02*
D03*
Y10825002D02*
D03*
X16250002Y9300002D02*
D03*
Y9800001D02*
D03*
X17624998Y10000000D02*
D03*
X18124998D02*
D03*
X7975001Y3900002D02*
D03*
X7475002D02*
D03*
X5599999Y3625002D02*
D03*
Y4125001D02*
D03*
X5300000Y5324998D02*
D03*
Y5825002D02*
D03*
X5675000Y5324998D02*
D03*
Y5825002D02*
D03*
X7775001Y5075001D02*
D03*
Y5575000D02*
D03*
X9050000Y4500001D02*
D03*
X8550001D02*
D03*
X4249999Y3725001D02*
D03*
X3750000D02*
D03*
X2550003Y2400000D02*
D03*
Y2899999D02*
D03*
X7850002Y1869999D02*
D03*
Y1370000D02*
D03*
X6700002Y2369998D02*
D03*
Y2870002D02*
D03*
X9875002Y2395002D02*
D03*
Y2895001D02*
D03*
X10250002D02*
D03*
Y2395002D02*
D03*
X3900002Y2384999D02*
D03*
Y2884998D02*
D03*
X3050002Y2859999D02*
D03*
Y2610002D02*
D03*
X9875002Y1170000D02*
D03*
Y670001D02*
D03*
X11550000Y1320002D02*
D03*
Y819998D02*
D03*
X9100002Y645003D02*
D03*
X9349999D02*
D03*
X8275000D02*
D03*
X8774999D02*
D03*
X3099999Y710001D02*
D03*
Y959998D02*
D03*
X2600000Y319999D02*
D03*
X3099999D02*
D03*
X3900002Y1185001D02*
D03*
Y685002D02*
D03*
X6299998Y670001D02*
D03*
Y1170000D02*
D03*
X6700002D02*
D03*
Y670001D02*
D03*
X7750002Y919998D02*
D03*
X7500000D02*
D03*
X10000000Y6050001D02*
D03*
Y5550002D02*
D03*
X10400000D02*
D03*
Y6050001D02*
D03*
X12100001Y17500002D02*
D03*
X10100000Y8099999D02*
D03*
Y8599998D02*
D03*
X9749998Y8099999D02*
D03*
Y8599998D02*
D03*
X3725001Y8099999D02*
D03*
Y8599998D02*
D03*
X4100002D02*
D03*
Y8099999D02*
D03*
X2500000Y6900001D02*
D03*
X2799999Y8825001D02*
D03*
X2300000D02*
D03*
X2524999Y8425002D02*
D03*
Y9725000D02*
D03*
X3150001Y7100001D02*
D03*
Y7349998D02*
D03*
Y5899998D02*
D03*
Y6150000D02*
D03*
X2500000Y5650001D02*
D03*
X7975001Y15450002D02*
D03*
X7775001Y17449998D02*
D03*
X7200001Y17049998D02*
D03*
Y17549998D02*
D03*
X4000002Y7149998D02*
D03*
Y7649997D02*
D03*
X9100002Y9349999D02*
D03*
Y9849998D02*
D03*
X9475003D02*
D03*
Y9349999D02*
D03*
X6749999Y8099999D02*
D03*
Y8599998D02*
D03*
X12349998Y16199998D02*
D03*
X12100001D02*
D03*
Y10400000D02*
D03*
X12600000D02*
D03*
X12100001Y12999998D02*
D03*
X12600000D02*
D03*
X12400001Y13699998D02*
D03*
X12149999D02*
D03*
X13099998Y15400000D02*
D03*
Y14900002D02*
D03*
Y14600002D02*
D03*
Y14100002D02*
D03*
X13199998Y12900000D02*
D03*
Y12400001D02*
D03*
Y12100001D02*
D03*
Y11600002D02*
D03*
Y10400000D02*
D03*
Y9900001D02*
D03*
Y9600001D02*
D03*
Y9100002D02*
D03*
X12000001Y15499998D02*
D03*
X12500000D02*
D03*
X7100001Y8099999D02*
D03*
Y8599998D02*
D03*
X12449998Y11099998D02*
D03*
X12200001D02*
D03*
X6975003Y9862500D02*
D03*
Y9362501D02*
D03*
X6598427D02*
D03*
Y9862500D02*
D03*
X15575002Y5075001D02*
D03*
X17424998Y14475003D02*
D03*
X17924998D02*
D03*
X15675000Y14375003D02*
D03*
X16174998D02*
D03*
X15499998Y10925002D02*
D03*
X544998Y4149999D02*
D03*
Y4649998D02*
D03*
X1994997Y4375003D02*
D03*
Y3874999D02*
D03*
X21399998Y10000000D02*
D03*
Y10499999D02*
D03*
X23550002Y7800000D02*
D03*
Y8299999D02*
D03*
X23499998Y10850001D02*
D03*
Y11350000D02*
D03*
X22149998D02*
D03*
Y10850001D02*
D03*
X20049998Y10000000D02*
D03*
Y10499999D02*
D03*
X22200002Y7824998D02*
D03*
Y8325002D02*
D03*
X19749998Y7824998D02*
D03*
X21925002Y6050001D02*
D03*
Y6550000D02*
D03*
X20550002Y5624998D02*
D03*
Y6125002D02*
D03*
X21925002Y3525002D02*
D03*
Y3024998D02*
D03*
X19625000Y15324998D02*
D03*
X20575002Y3550001D02*
D03*
Y3050002D02*
D03*
X24200002Y4200002D02*
D03*
Y4700001D02*
D03*
X22850003Y4200002D02*
D03*
Y4700001D02*
D03*
X19050000Y2300000D02*
D03*
X19549998D02*
D03*
X22100002Y2600000D02*
D03*
X22600002D02*
D03*
X19050000Y1300002D02*
D03*
X19549998D02*
D03*
X19050000Y599999D02*
D03*
X19549998D02*
D03*
X22400002Y16250002D02*
D03*
X22900000D02*
D03*
X4400001Y7649997D02*
D03*
Y7149998D02*
D03*
X7000001Y7649997D02*
D03*
Y7149998D02*
D03*
X7400000Y7649997D02*
D03*
Y7149998D02*
D03*
X10000000D02*
D03*
Y7649997D02*
D03*
X10400000D02*
D03*
Y7149998D02*
D03*
D87*
X4888001Y7647000D02*
D03*
X5142001D02*
D03*
X5396001D02*
D03*
X5650001D02*
D03*
X5904001D02*
D03*
X6158001D02*
D03*
X6412001D02*
D03*
Y6853001D02*
D03*
X6158001D02*
D03*
X5904001D02*
D03*
X5650001D02*
D03*
X5396001D02*
D03*
X5142001D02*
D03*
X22622002Y15162003D02*
D03*
Y14908002D02*
D03*
Y14654002D02*
D03*
Y14400002D02*
D03*
Y14146002D02*
D03*
Y13892001D02*
D03*
Y13638002D02*
D03*
X21828003D02*
D03*
Y13892001D02*
D03*
Y14146002D02*
D03*
Y14400002D02*
D03*
Y14654002D02*
D03*
Y14908002D02*
D03*
X17272000Y4112001D02*
D03*
Y3858001D02*
D03*
Y3604001D02*
D03*
Y3350001D02*
D03*
Y3096001D02*
D03*
Y2842001D02*
D03*
Y2588001D02*
D03*
X16478001D02*
D03*
Y2842001D02*
D03*
Y3096001D02*
D03*
Y3350001D02*
D03*
Y3604001D02*
D03*
Y3858001D02*
D03*
X19293997Y7787000D02*
D03*
Y7533000D02*
D03*
Y7279000D02*
D03*
Y7025000D02*
D03*
Y6771000D02*
D03*
Y6517000D02*
D03*
Y6263000D02*
D03*
X18499998D02*
D03*
Y6517000D02*
D03*
Y6771000D02*
D03*
Y7025000D02*
D03*
Y7279000D02*
D03*
Y7533000D02*
D03*
X16603000Y9246001D02*
D03*
Y9500001D02*
D03*
Y9754001D02*
D03*
Y10008001D02*
D03*
Y10262001D02*
D03*
Y10516001D02*
D03*
Y10770001D02*
D03*
X17396999D02*
D03*
Y10516001D02*
D03*
Y10262001D02*
D03*
Y10008001D02*
D03*
Y9754001D02*
D03*
Y9500001D02*
D03*
X8144002Y5572003D02*
D03*
X8398002D02*
D03*
X8652002D02*
D03*
X8906002D02*
D03*
Y4777999D02*
D03*
X8652002D02*
D03*
X8398002D02*
D03*
X10838002Y6046998D02*
D03*
X11092002D02*
D03*
X11346002D02*
D03*
X11600002D02*
D03*
X11854002D02*
D03*
X12108002D02*
D03*
X12362002D02*
D03*
Y5252999D02*
D03*
X12108002D02*
D03*
X11854002D02*
D03*
X11600002D02*
D03*
X11346002D02*
D03*
X11092002D02*
D03*
X10664998Y8103001D02*
D03*
X10918998D02*
D03*
X11172998D02*
D03*
X11426998D02*
D03*
X11680998D02*
D03*
X11934998D02*
D03*
X12188998D02*
D03*
Y8897000D02*
D03*
X11934998D02*
D03*
X11680998D02*
D03*
X11426998D02*
D03*
X11172998D02*
D03*
X10918998D02*
D03*
X10664998D02*
D03*
X10410998D02*
D03*
X4665000Y8103001D02*
D03*
X4919000D02*
D03*
X5173000D02*
D03*
X5427000D02*
D03*
X5681000D02*
D03*
X5935000D02*
D03*
X6189000D02*
D03*
Y8897000D02*
D03*
X5935000D02*
D03*
X5681000D02*
D03*
X5427000D02*
D03*
X5173000D02*
D03*
X4919000D02*
D03*
X4665000D02*
D03*
X4411000D02*
D03*
X7448001Y16052998D02*
D03*
X7702001D02*
D03*
X7956001D02*
D03*
Y16847002D02*
D03*
X7702001D02*
D03*
X7448001D02*
D03*
X7194001D02*
D03*
X7664999Y8103001D02*
D03*
X7918999D02*
D03*
X8172999D02*
D03*
X8426999D02*
D03*
X8680999D02*
D03*
X8934999D02*
D03*
X9188999D02*
D03*
Y8897000D02*
D03*
X8934999D02*
D03*
X8680999D02*
D03*
X8426999D02*
D03*
X8172999D02*
D03*
X7918999D02*
D03*
X7664999D02*
D03*
X7410999D02*
D03*
X16403000Y14883003D02*
D03*
Y14629002D02*
D03*
Y14375003D02*
D03*
Y14121004D02*
D03*
Y13867003D02*
D03*
Y13613004D02*
D03*
X17196999D02*
D03*
Y13867003D02*
D03*
Y14121004D02*
D03*
Y14375003D02*
D03*
Y14629002D02*
D03*
Y14883003D02*
D03*
Y15137003D02*
D03*
X1143000Y3853002D02*
D03*
X1397000D02*
D03*
X1651000D02*
D03*
Y4647001D02*
D03*
X1397000D02*
D03*
X1143000D02*
D03*
X889000D02*
D03*
X22428001Y11358001D02*
D03*
Y11104001D02*
D03*
Y10850001D02*
D03*
Y10596001D02*
D03*
Y10342001D02*
D03*
Y10088001D02*
D03*
X23222002D02*
D03*
Y10342001D02*
D03*
Y10596001D02*
D03*
Y10850001D02*
D03*
Y11104001D02*
D03*
Y11358001D02*
D03*
Y11612001D02*
D03*
X20856001Y6545001D02*
D03*
Y6291001D02*
D03*
Y6037001D02*
D03*
Y5783001D02*
D03*
Y5529001D02*
D03*
Y5275001D02*
D03*
X21650000D02*
D03*
Y5529001D02*
D03*
Y5783001D02*
D03*
Y6037001D02*
D03*
Y6291001D02*
D03*
Y6545001D02*
D03*
Y6799001D02*
D03*
X21592001Y1502999D02*
D03*
X21846002D02*
D03*
X22100002D02*
D03*
X22354002D02*
D03*
X22608002D02*
D03*
X22862003D02*
D03*
Y2296998D02*
D03*
X22608002D02*
D03*
X22354002D02*
D03*
X22100002D02*
D03*
X21846002D02*
D03*
X21592001D02*
D03*
X21338002D02*
D03*
X8091998Y6853001D02*
D03*
X8345998D02*
D03*
X8599998D02*
D03*
X8853998D02*
D03*
X9107998D02*
D03*
X9361998D02*
D03*
Y7647000D02*
D03*
X9107998D02*
D03*
X8853998D02*
D03*
X8599998D02*
D03*
X8345998D02*
D03*
X8091998D02*
D03*
X7837998D02*
D03*
X11092002Y6853001D02*
D03*
X11346002D02*
D03*
X11600002D02*
D03*
X11854002D02*
D03*
X12108002D02*
D03*
X12362002D02*
D03*
Y7647000D02*
D03*
X12108002D02*
D03*
X11854002D02*
D03*
X11600002D02*
D03*
X11346002D02*
D03*
X11092002D02*
D03*
X10838002D02*
D03*
D88*
X4888001Y6853001D02*
D03*
X8144002Y4777999D02*
D03*
X10838002Y5252999D02*
D03*
X10410998Y8103001D02*
D03*
X4411000D02*
D03*
X7194001Y16052998D02*
D03*
X7410999Y8103001D02*
D03*
X889000Y3853002D02*
D03*
X21338002Y1502999D02*
D03*
X7837998Y6853001D02*
D03*
X10838002D02*
D03*
D89*
X21065002Y16814998D02*
D03*
X20184999D02*
D03*
X13859998Y14108333D02*
D03*
X14740001D02*
D03*
X13859998Y16814998D02*
D03*
X14740001D02*
D03*
X13859998Y11701668D02*
D03*
X14740001D02*
D03*
X13859998Y9145001D02*
D03*
X14740001D02*
D03*
X13859998Y6588333D02*
D03*
X14740001D02*
D03*
X13859998Y4031666D02*
D03*
X14740001D02*
D03*
X13859998Y1474998D02*
D03*
X14740001D02*
D03*
X20184999Y14108333D02*
D03*
X21065002D02*
D03*
X23585002Y15315001D02*
D03*
X24465001D02*
D03*
D90*
X20875000Y16114999D02*
D03*
X20624998D02*
D03*
X20375002D02*
D03*
X14050000Y13408334D02*
D03*
X14300002D02*
D03*
X14549998D02*
D03*
X14050000Y16114999D02*
D03*
X14300002D02*
D03*
X14549998D02*
D03*
X14050000Y11001665D02*
D03*
X14300002D02*
D03*
X14549998D02*
D03*
X14050000Y8445002D02*
D03*
X14300002D02*
D03*
X14549998D02*
D03*
X14050000Y5888335D02*
D03*
X14300002D02*
D03*
X14549998D02*
D03*
X14050000Y3331667D02*
D03*
X14300002D02*
D03*
X14549998D02*
D03*
X14050000Y775000D02*
D03*
X14300002D02*
D03*
X14549998D02*
D03*
X20375002Y13408334D02*
D03*
X20624998D02*
D03*
X20875000D02*
D03*
X23774998Y14614996D02*
D03*
X24025002D02*
D03*
X24274998D02*
D03*
D91*
X21828003Y15162003D02*
D03*
X16478001Y4112001D02*
D03*
X18499998Y7787000D02*
D03*
X17396999Y9246001D02*
D03*
X16403000Y15137003D02*
D03*
X22428001Y11612001D02*
D03*
X20856001Y6799001D02*
D03*
D92*
X17549998Y2925003D02*
D03*
X18250002Y7524999D02*
D03*
X17950002Y8425002D02*
D03*
X19609999Y5619999D02*
D03*
X18250002Y6775003D02*
D03*
X18674998Y10525003D02*
D03*
X18375000Y8750000D02*
D03*
X18150002Y13299998D02*
D03*
X5999998Y6199998D02*
D03*
X6274999Y5300000D02*
D03*
X5000000Y6500002D02*
D03*
X6774998Y4475002D02*
D03*
X3974998Y4000002D02*
D03*
X4475002Y4249999D02*
D03*
X5550002Y1820001D02*
D03*
X4849998Y2384999D02*
D03*
X3550001D02*
D03*
X4549999Y3285002D02*
D03*
X4249999Y2384999D02*
D03*
X5000000Y770001D02*
D03*
X3550001Y1185001D02*
D03*
X4400001Y284998D02*
D03*
X5999998Y270002D02*
D03*
X7000001Y1170000D02*
D03*
X14000002Y14900002D02*
D03*
X2449998Y16650000D02*
D03*
X4200002Y16150002D02*
D03*
X5999998Y16250002D02*
D03*
X15200000Y13499998D02*
D03*
X14600002Y15799998D02*
D03*
X14300002Y15808543D02*
D03*
X16099998Y15725003D02*
D03*
X18075002Y15650002D02*
D03*
X18375000Y14775002D02*
D03*
X15850002Y14074998D02*
D03*
X16350000Y11174999D02*
D03*
X16150002Y13175000D02*
D03*
X17449998Y14200002D02*
D03*
X17700000Y10275001D02*
D03*
X17875002Y12600000D02*
D03*
X15300000Y3375000D02*
D03*
Y4475002D02*
D03*
X21399998Y10975000D02*
D03*
X21725002Y11600002D02*
D03*
X23850002Y11900002D02*
D03*
X20630002Y12200001D02*
D03*
X24150000Y10499999D02*
D03*
X24449998D02*
D03*
X24074998Y9675002D02*
D03*
X20350002Y13099998D02*
D03*
Y14900002D02*
D03*
X20899998Y13099998D02*
D03*
X23499998Y8774999D02*
D03*
X20324998Y7424999D02*
D03*
X23774998Y8774999D02*
D03*
X20899998Y15799998D02*
D03*
X20624998D02*
D03*
Y6525001D02*
D03*
X20200000Y6300003D02*
D03*
X21499998Y15799998D02*
D03*
X22850003D02*
D03*
X22249998Y5775000D02*
D03*
X22000002Y4625000D02*
D03*
X20599998Y5424998D02*
D03*
X22524998Y5775000D02*
D03*
X22274997Y4625000D02*
D03*
X21199998Y14900002D02*
D03*
X23499998Y12075003D02*
D03*
X22824998Y6949999D02*
D03*
Y4975001D02*
D03*
X20899998Y2200001D02*
D03*
X21350000Y1250000D02*
D03*
X23250002Y2300000D02*
D03*
D93*
X16600002Y6174999D02*
D03*
X7775001Y15450002D02*
D03*
X7975001Y17449998D02*
D03*
X15300000Y10925002D02*
D03*
X19949998Y7824998D02*
D03*
X19825000Y15324998D02*
D03*
D94*
X17446498Y7829001D02*
D03*
X17192497Y7575001D02*
D03*
X18696498Y14554002D02*
D03*
X18442497Y14300002D02*
D03*
X17295998Y12570998D02*
D03*
X17041998Y12824998D02*
D03*
X15192502Y2025000D02*
D03*
X15446503Y2279000D02*
D03*
X22850003Y12742499D02*
D03*
X22596004Y12996500D02*
D03*
D95*
X17446498Y7321001D02*
D03*
X18696498Y14046002D02*
D03*
X15446503Y1771000D02*
D03*
D96*
X18175000Y11374999D02*
D03*
Y10375001D02*
D03*
X19250000Y10999998D02*
D03*
Y10000000D02*
D03*
X15400000Y10050003D02*
D03*
Y9050000D02*
D03*
X14150000Y7575001D02*
D03*
X15149998D02*
D03*
X15575002Y5799999D02*
D03*
Y6800002D02*
D03*
X15850002Y4325000D02*
D03*
D97*
X18650002Y10748000D02*
D03*
Y10875000D02*
D03*
D98*
Y11002000D02*
D03*
D99*
X6386998Y4328099D02*
D03*
X6132998D02*
D03*
X5878998D02*
D03*
X5624998D02*
D03*
X5370998D02*
D03*
X5116998D02*
D03*
X4862998D02*
D03*
Y5121900D02*
D03*
X5116998D02*
D03*
X5370998D02*
D03*
X5624998D02*
D03*
X5878998D02*
D03*
X6132998D02*
D03*
X5938002Y2166899D02*
D03*
X6192002D02*
D03*
X6446002D02*
D03*
X6700002D02*
D03*
X6954002D02*
D03*
X7208002D02*
D03*
X7462002D02*
D03*
Y1373099D02*
D03*
X7208002D02*
D03*
X6954002D02*
D03*
X6700002D02*
D03*
X6446002D02*
D03*
X6192002D02*
D03*
X9121003Y2169998D02*
D03*
X9375003D02*
D03*
X9629003D02*
D03*
X9883003D02*
D03*
X10137003D02*
D03*
X10391003D02*
D03*
X10645003D02*
D03*
Y1376202D02*
D03*
X10391003D02*
D03*
X10137003D02*
D03*
X9883003D02*
D03*
X9629003D02*
D03*
X9375003D02*
D03*
X3138002Y2181901D02*
D03*
X3392002D02*
D03*
X3646002D02*
D03*
X3900002D02*
D03*
X4154002D02*
D03*
X4408002D02*
D03*
X4662002D02*
D03*
Y1388100D02*
D03*
X4408002D02*
D03*
X4154002D02*
D03*
X3900002D02*
D03*
X3646002D02*
D03*
X3392002D02*
D03*
D100*
X6386998Y5121900D02*
D03*
X5938002Y1373099D02*
D03*
X9121003Y1376202D02*
D03*
X3138002Y1388100D02*
D03*
D101*
X11582959Y17703400D02*
D03*
Y17449399D02*
D03*
Y17195399D02*
D03*
Y16941399D02*
D03*
Y16687399D02*
D03*
Y16433398D02*
D03*
Y16179399D02*
D03*
Y15925398D02*
D03*
Y15671399D02*
D03*
Y15417400D02*
D03*
Y15163399D02*
D03*
Y14909399D02*
D03*
Y14655399D02*
D03*
Y14401399D02*
D03*
Y14147398D02*
D03*
Y13893399D02*
D03*
Y13639400D02*
D03*
Y13385399D02*
D03*
Y13131400D02*
D03*
Y12877399D02*
D03*
X9804959D02*
D03*
Y13131400D02*
D03*
Y13385399D02*
D03*
Y13639400D02*
D03*
Y13893399D02*
D03*
Y14147398D02*
D03*
Y14401399D02*
D03*
Y14655399D02*
D03*
Y14909399D02*
D03*
Y15163399D02*
D03*
Y15417400D02*
D03*
Y15671399D02*
D03*
Y15925398D02*
D03*
Y16179399D02*
D03*
Y16433398D02*
D03*
Y16687399D02*
D03*
Y16941399D02*
D03*
Y17195399D02*
D03*
Y17449399D02*
D03*
Y17703400D02*
D03*
D102*
X11265002Y17647519D02*
D03*
D103*
X12100001Y17000002D02*
D03*
X2500000Y7149998D02*
D03*
X2524999Y8175000D02*
D03*
Y9475003D02*
D03*
X2500000Y5899998D02*
D03*
X15575002Y5275001D02*
D03*
D104*
X2000001Y5699999D02*
D03*
Y8191998D02*
D03*
Y6900001D02*
D03*
Y9492000D02*
D03*
D105*
Y5953999D02*
D03*
Y6207999D02*
D03*
Y8445998D02*
D03*
Y8699998D02*
D03*
Y7154001D02*
D03*
Y7408001D02*
D03*
Y9746000D02*
D03*
Y10000000D02*
D03*
D106*
X1099998Y14100002D02*
D03*
X2100001D02*
D03*
X1099998Y12600000D02*
D03*
X2100001D02*
D03*
X1099998Y11199998D02*
D03*
X2100001D02*
D03*
D107*
X599999Y14100002D02*
D03*
X2600000D02*
D03*
X599999Y12600000D02*
D03*
X2600000D02*
D03*
X599999Y11199998D02*
D03*
X2600000D02*
D03*
D108*
X1280003Y16949998D02*
D03*
D109*
X1749999Y17249998D02*
D03*
D110*
Y16650000D02*
D03*
D111*
X2610002Y15699998D02*
D03*
X2000001Y15100000D02*
D03*
D112*
X3177002Y17549998D02*
D03*
D113*
X2922991D02*
D03*
D114*
X12002999Y15181001D02*
D03*
X12102998Y12681001D02*
D03*
Y10081001D02*
D03*
D115*
X12002999Y14927000D02*
D03*
Y14673001D02*
D03*
Y14419000D02*
D03*
X12796998D02*
D03*
Y14673001D02*
D03*
Y14927000D02*
D03*
Y15181001D02*
D03*
X12102998Y12427001D02*
D03*
Y12173001D02*
D03*
Y11919001D02*
D03*
X12897002D02*
D03*
Y12173001D02*
D03*
Y12427001D02*
D03*
Y12681001D02*
D03*
X12102998Y9827001D02*
D03*
Y9573001D02*
D03*
Y9319001D02*
D03*
X12897002D02*
D03*
Y9573001D02*
D03*
Y9827001D02*
D03*
Y10081001D02*
D03*
D116*
X17624998Y14900002D02*
D03*
Y15400000D02*
D03*
X21925002Y10000000D02*
D03*
Y10499999D02*
D03*
X19925000Y11350000D02*
D03*
Y10850001D02*
D03*
X21700002Y8050002D02*
D03*
Y8550001D02*
D03*
X24025002Y7975001D02*
D03*
Y8475000D02*
D03*
X23525002Y13799998D02*
D03*
Y13299998D02*
D03*
X23499998Y2649997D02*
D03*
X22860001D02*
D03*
D117*
X17549998Y12824998D02*
D03*
X23104002Y12996500D02*
D03*
D118*
X15850002Y3825001D02*
D03*
D119*
X20343999Y11764000D02*
D03*
X22488002Y9582998D02*
D03*
X20869000Y4314002D02*
D03*
X23144002Y5964001D02*
D03*
D120*
X22375002Y17300002D02*
D03*
D121*
X21874998Y16800002D02*
D03*
X22875002D02*
D03*
X22125000D02*
D03*
X22624998D02*
D03*
D122*
X21874998Y17549998D02*
D03*
Y17300002D02*
D03*
X22375002Y16800002D02*
D03*
X22875002Y17300002D02*
D03*
Y17549998D02*
D03*
D123*
X24000002Y17000002D02*
D03*
X24500002Y16000002D02*
D03*
X24000002Y15000000D02*
D03*
X24500002Y14000000D02*
D03*
X24000002Y13000000D02*
D03*
X24500002Y12000000D02*
D03*
X24000002Y11000000D02*
D03*
X24500002Y10000000D02*
D03*
X24000002Y9000000D02*
D03*
X24500002Y8000000D02*
D03*
X24000002Y7000000D02*
D03*
X24500002Y6000000D02*
D03*
X24000002Y3000000D02*
D03*
X24500002Y2000000D02*
D03*
X24000002Y1000000D02*
D03*
X23000002Y17000002D02*
D03*
X23500002Y16000002D02*
D03*
X23000002Y15000000D02*
D03*
X23500002Y14000000D02*
D03*
X23000002Y13000000D02*
D03*
Y11000000D02*
D03*
X23500002Y10000000D02*
D03*
X23000002Y7000000D02*
D03*
X23500002Y6000000D02*
D03*
X23000002Y5000000D02*
D03*
Y3000000D02*
D03*
X23500002Y2000000D02*
D03*
X22500002Y16000002D02*
D03*
Y14000000D02*
D03*
X22000002Y13000000D02*
D03*
X22500002Y12000000D02*
D03*
Y10000000D02*
D03*
X22000002Y9000000D02*
D03*
Y7000000D02*
D03*
X22500002Y6000000D02*
D03*
X22000002Y5000000D02*
D03*
X22500002Y4000000D02*
D03*
Y2000000D02*
D03*
X22000002Y1000000D02*
D03*
X21500002Y16000002D02*
D03*
Y12000000D02*
D03*
X21000002Y9000000D02*
D03*
X21500002Y6000000D02*
D03*
X21000002Y5000000D02*
D03*
X21500002Y4000000D02*
D03*
X21000002Y3000000D02*
D03*
X21500002Y2000000D02*
D03*
X21000002Y1000000D02*
D03*
X20000002Y17000002D02*
D03*
X20500002Y16000002D02*
D03*
X20000002Y15000000D02*
D03*
Y13000000D02*
D03*
X20500002Y12000000D02*
D03*
Y10000000D02*
D03*
X20000002Y9000000D02*
D03*
X20500002Y6000000D02*
D03*
X20000002Y5000000D02*
D03*
Y3000000D02*
D03*
X20500002Y2000000D02*
D03*
X20000002Y1000000D02*
D03*
X19000002Y17000002D02*
D03*
X19500002Y16000002D02*
D03*
X19000002Y15000000D02*
D03*
X19500002Y14000000D02*
D03*
Y12000000D02*
D03*
Y10000000D02*
D03*
Y8000000D02*
D03*
X19000002Y7000000D02*
D03*
Y5000000D02*
D03*
Y3000000D02*
D03*
Y1000000D02*
D03*
X18000002Y17000002D02*
D03*
X18500002Y16000002D02*
D03*
X18000002Y15000000D02*
D03*
X18500002Y14000000D02*
D03*
X18000002Y13000000D02*
D03*
X18500002Y12000000D02*
D03*
X18000002Y11000000D02*
D03*
X18500002Y10000000D02*
D03*
X18000002Y7000000D02*
D03*
Y5000000D02*
D03*
X18500002Y4000000D02*
D03*
X18000002Y3000000D02*
D03*
X18500002Y2000000D02*
D03*
X17000002Y17000002D02*
D03*
X17500002Y16000002D02*
D03*
X17000002Y15000000D02*
D03*
X17500002Y14000000D02*
D03*
X17000002Y13000000D02*
D03*
X17500002Y12000000D02*
D03*
X17000002Y11000000D02*
D03*
Y9000000D02*
D03*
Y7000000D02*
D03*
X17500002Y6000000D02*
D03*
X17000002Y1000000D02*
D03*
X16000002Y17000002D02*
D03*
X16500002Y16000002D02*
D03*
Y14000000D02*
D03*
X16000002Y11000000D02*
D03*
Y9000000D02*
D03*
Y7000000D02*
D03*
X16500002Y6000000D02*
D03*
X16000002Y5000000D02*
D03*
X16500002Y2000000D02*
D03*
X15000000Y17000002D02*
D03*
X15500000Y16000002D02*
D03*
Y14000000D02*
D03*
X15000000Y13000000D02*
D03*
X15500000Y12000000D02*
D03*
X15000000Y3000000D02*
D03*
X15500000Y2000000D02*
D03*
X15000000Y1000000D02*
D03*
X14500000Y14000000D02*
D03*
X14000000Y13000000D02*
D03*
Y7000000D02*
D03*
Y5000000D02*
D03*
Y3000000D02*
D03*
Y1000000D02*
D03*
X13000000Y17000002D02*
D03*
X13500000Y16000002D02*
D03*
X13000000Y15000000D02*
D03*
X13500000Y14000000D02*
D03*
X13000000Y13000000D02*
D03*
X13500000Y6000000D02*
D03*
Y4000000D02*
D03*
X13000000Y3000000D02*
D03*
Y1000000D02*
D03*
X12500000Y16000002D02*
D03*
X12000000Y11000000D02*
D03*
Y9000000D02*
D03*
X12500000Y6000000D02*
D03*
Y4000000D02*
D03*
X12000000Y1000000D02*
D03*
X11000000Y17000002D02*
D03*
Y15000000D02*
D03*
Y13000000D02*
D03*
Y11000000D02*
D03*
X11500000Y10000000D02*
D03*
Y4000000D02*
D03*
X11000000Y3000000D02*
D03*
Y1000000D02*
D03*
X10000000Y17000002D02*
D03*
Y15000000D02*
D03*
Y11000000D02*
D03*
X10500000Y4000000D02*
D03*
X10000000Y3000000D02*
D03*
X9000000Y17000002D02*
D03*
X9500000Y16000002D02*
D03*
X9000000Y15000000D02*
D03*
X9500000Y14000000D02*
D03*
X9000000Y13000000D02*
D03*
X9500000Y12000000D02*
D03*
Y10000000D02*
D03*
X9000000Y3000000D02*
D03*
Y1000000D02*
D03*
X8500000Y16000002D02*
D03*
X8000000Y15000000D02*
D03*
X8500000Y14000000D02*
D03*
X8000000Y13000000D02*
D03*
X8500000Y12000000D02*
D03*
X8000000Y11000000D02*
D03*
X8500000Y10000000D02*
D03*
X8000000Y9000000D02*
D03*
X8500000Y8000000D02*
D03*
Y6000000D02*
D03*
X8000000Y5000000D02*
D03*
X8500000Y4000000D02*
D03*
X8000000Y3000000D02*
D03*
Y1000000D02*
D03*
X7000000Y17000002D02*
D03*
Y15000000D02*
D03*
Y13000000D02*
D03*
Y11000000D02*
D03*
X7500000Y6000000D02*
D03*
X7000000Y5000000D02*
D03*
Y3000000D02*
D03*
Y1000000D02*
D03*
X6000000Y17000002D02*
D03*
X6500000Y16000002D02*
D03*
X6000000Y15000000D02*
D03*
X6500000Y14000000D02*
D03*
X6000000Y13000000D02*
D03*
X6500000Y12000000D02*
D03*
X6000000Y11000000D02*
D03*
Y9000000D02*
D03*
X6500000Y8000000D02*
D03*
X6000000Y7000000D02*
D03*
X6500000Y4000000D02*
D03*
X6000000Y3000000D02*
D03*
Y1000000D02*
D03*
X5000000Y17000002D02*
D03*
Y13000000D02*
D03*
X5500000Y12000000D02*
D03*
X5000000Y11000000D02*
D03*
X5500000Y10000000D02*
D03*
Y4000000D02*
D03*
X5000000Y3000000D02*
D03*
Y1000000D02*
D03*
X4000000Y17000002D02*
D03*
X4500000Y16000002D02*
D03*
X4000000Y15000000D02*
D03*
Y13000000D02*
D03*
X4500000Y12000000D02*
D03*
X4000000Y11000000D02*
D03*
Y9000000D02*
D03*
Y7000000D02*
D03*
Y3000000D02*
D03*
X4500000Y2000000D02*
D03*
X4000000Y1000000D02*
D03*
X3000000Y17000002D02*
D03*
X3500000Y16000002D02*
D03*
X3000000Y15000000D02*
D03*
X3500000Y14000000D02*
D03*
X3000000Y13000000D02*
D03*
X3500000Y12000000D02*
D03*
X3000000Y11000000D02*
D03*
X3500000Y10000000D02*
D03*
X3000000Y9000000D02*
D03*
X3500000Y8000000D02*
D03*
X3000000Y7000000D02*
D03*
X3500000Y6000000D02*
D03*
Y4000000D02*
D03*
Y2000000D02*
D03*
X3000000Y1000000D02*
D03*
X2000000Y17000002D02*
D03*
X2500000Y16000002D02*
D03*
Y14000000D02*
D03*
X2000000Y13000000D02*
D03*
X2500000Y12000000D02*
D03*
X2000000Y11000000D02*
D03*
X2500000Y10000000D02*
D03*
X2000000Y9000000D02*
D03*
X2500000Y8000000D02*
D03*
Y6000000D02*
D03*
X2000000Y3000000D02*
D03*
X2500000Y2000000D02*
D03*
X2000000Y1000000D02*
D03*
X1000000Y17000002D02*
D03*
Y15000000D02*
D03*
X1500000Y14000000D02*
D03*
X1000000Y13000000D02*
D03*
X1500000Y12000000D02*
D03*
X1000000Y11000000D02*
D03*
X1500000Y10000000D02*
D03*
Y8000000D02*
D03*
Y6000000D02*
D03*
X1000000Y5000000D02*
D03*
Y3000000D02*
D03*
X1500000Y2000000D02*
D03*
X1000000Y1000000D02*
D03*
D124*
X7690000Y7500000D02*
D03*
X6710000Y9000000D02*
D03*
X6940000D02*
D03*
X13680000Y5960000D02*
D03*
X17630000Y2220000D02*
D03*
X17139920Y2128520D02*
D03*
X11508740Y7396352D02*
D03*
X9654540Y6441440D02*
D03*
X11230000Y6720000D02*
D03*
X5950000Y6480000D02*
D03*
X7180000Y3880000D02*
D03*
X9770000Y3690000D02*
D03*
X9550000D02*
D03*
X24060001Y9920000D02*
D03*
X22310001Y10720000D02*
D03*
X21260001Y10100000D02*
D03*
X23570000Y4950000D02*
D03*
X21210001Y6810000D02*
D03*
X21470000Y6940000D02*
D03*
X14430000Y12030000D02*
D03*
X17730000Y9166889D02*
D03*
X17670000Y8770000D02*
D03*
X13639999Y5420000D02*
D03*
X10960000Y2310000D02*
D03*
X10970000Y2580000D02*
D03*
X10900000Y6680000D02*
D03*
X11500000Y12030000D02*
D03*
X11460000Y11360000D02*
D03*
X9130000Y7960000D02*
D03*
X8600000D02*
D03*
X8670000Y4950000D02*
D03*
X9550000Y4770000D02*
D03*
X9560000Y4190000D02*
D03*
X8660000Y3880000D02*
D03*
X18270000Y8150000D02*
D03*
X18000000Y7930000D02*
D03*
X13723648Y650000D02*
D03*
X13550000Y11538694D02*
D03*
X13230000Y11360000D02*
D03*
X15850000Y1170000D02*
D03*
X16080000Y5780000D02*
D03*
X15689999Y5620000D02*
D03*
X17360001Y11730000D02*
D03*
X11300000Y9610000D02*
D03*
X12010000Y8630000D02*
D03*
X11721851Y8454186D02*
D03*
X10230002Y9849998D02*
D03*
X9831639Y9634510D02*
D03*
X14880000Y4569998D02*
D03*
X17838577Y3741420D02*
D03*
X18882359Y8862060D02*
D03*
X11206480Y5844540D02*
D03*
X15424998Y4318000D02*
D03*
X12420600Y8877300D02*
D03*
X17139920Y3964940D02*
D03*
X9705340Y7470140D02*
D03*
X10932160Y6985000D02*
D03*
X4465320Y6029960D02*
D03*
X457200Y7957200D02*
D03*
X16271240Y7444740D02*
D03*
X17349998Y2320000D02*
D03*
X10899999Y12100001D02*
D03*
X10250002Y12246000D02*
D03*
X5742940Y3149600D02*
D03*
X14836140Y1844040D02*
D03*
X17049998Y2409998D02*
D03*
X14200002Y1725000D02*
D03*
X17420001Y670001D02*
D03*
X6450000Y16250002D02*
D03*
X6849999D02*
D03*
X17045940Y9845040D02*
D03*
X14457680Y6098540D02*
D03*
X22649181Y9766300D02*
D03*
X4630420Y5486400D02*
D03*
X6228080Y434340D02*
D03*
X11279698Y1380002D02*
D03*
X17975580Y3964940D02*
D03*
X16908780Y7736840D02*
D03*
X15267940Y13693140D02*
D03*
X5689600Y5486400D02*
D03*
X19004280Y8602980D02*
D03*
X13398500Y4428500D02*
D03*
X8400639Y7419360D02*
D03*
X9960610Y7374890D02*
D03*
X10617200Y6718300D02*
D03*
X11343640Y7506579D02*
D03*
X12229998Y7297420D02*
D03*
X11346002Y6441440D02*
D03*
X7549998Y9200002D02*
D03*
D125*
X7690000Y6180000D02*
D03*
X6980000Y6190000D02*
D03*
X14998700Y1262380D02*
D03*
%TF.MD5,23d7d05f0826c537e665115d4371adfa*%
M02*
